<svg version="1.1" id="Layer_1" xmlns="http://www.w3.org/2000/svg" xmlns:xlink="http://www.w3.org/1999/xlink" x="0px" y="0px"
	 width="100%" viewBox="0 0 200 200" enable-background="new 0 0 200 200" xml:space="preserve">
<path fill="#FEFEFE" opacity="1.000000" stroke="none" 
	d="
M133.000000,201.000000 
	C88.666672,201.000000 44.833340,201.000000 1.000006,201.000000 
	C1.000004,134.333344 1.000004,67.666679 1.000002,1.000015 
	C67.666656,1.000010 134.333313,1.000010 200.999969,1.000005 
	C200.999985,67.666649 200.999985,134.333298 201.000000,200.999969 
	C178.500000,201.000000 156.000000,201.000000 133.000000,201.000000 
M107.205048,185.856537 
	C135.963287,183.181000 158.506134,169.966263 174.881241,146.139145 
	C177.133209,142.862335 177.314407,140.069229 175.369400,136.526855 
	C166.648651,120.643936 153.529541,110.897583 135.692215,107.806305 
	C133.345459,107.399605 130.285400,108.033623 128.263550,109.308342 
	C110.254562,120.662437 92.410767,120.789650 74.366623,109.426903 
	C72.417892,108.199745 69.618629,107.265572 67.445404,107.619003 
	C49.199680,110.586304 35.731060,120.387077 26.887161,136.659897 
	C25.086973,139.972260 25.160631,142.622360 27.333879,145.782120 
	C46.392273,173.491608 72.697540,186.803513 107.205048,185.856537 
M141.850647,77.156593 
	C142.918335,70.646095 144.997116,64.116447 144.874222,57.628498 
	C144.405151,32.861019 120.701096,13.074306 96.004204,16.208401 
	C70.440025,19.452559 52.540836,43.552578 57.495243,68.058060 
	C61.331207,87.031525 76.195724,101.493744 94.358917,103.924034 
	C114.635361,106.637077 132.461685,96.775917 141.850647,77.156593 
z"/>
<path fill="#030303" opacity="1.000000" stroke="none" 
	d="
M106.734818,185.876007 
	C72.697540,186.803513 46.392273,173.491608 27.333879,145.782120 
	C25.160631,142.622360 25.086973,139.972260 26.887161,136.659897 
	C35.731060,120.387077 49.199680,110.586304 67.445404,107.619003 
	C69.618629,107.265572 72.417892,108.199745 74.366623,109.426903 
	C92.410767,120.789650 110.254562,120.662437 128.263550,109.308342 
	C130.285400,108.033623 133.345459,107.399605 135.692215,107.806305 
	C153.529541,110.897583 166.648651,120.643936 175.369400,136.526855 
	C177.314407,140.069229 177.133209,142.862335 174.881241,146.139145 
	C158.506134,169.966263 135.963287,183.181000 106.734818,185.876007 
z"/>
<path fill="#030303" opacity="1.000000" stroke="none" 
	d="
M141.676849,77.500702 
	C132.461685,96.775917 114.635361,106.637077 94.358917,103.924034 
	C76.195724,101.493744 61.331207,87.031525 57.495243,68.058060 
	C52.540836,43.552578 70.440025,19.452559 96.004204,16.208401 
	C120.701096,13.074306 144.405151,32.861019 144.874222,57.628498 
	C144.997116,64.116447 142.918335,70.646095 141.676849,77.500702 
z"/>
</svg>